<svg width="1928" height="889" viewBox="0 0 1928 889" fill="none" xmlns="http://www.w3.org/2000/svg">
<g clip-path="url(#clip0_1_2)" filter="url(#filter0_d_1_2)">
<rect width="1920" height="881" transform="translate(4)" fill="#030012"/>
<g filter="url(#filter1_i_1_2)">
<path fill-rule="evenodd" clip-rule="evenodd" d="M227.113 -138.29C319.037 -104.217 459.727 -203.907 513.547 -121.978C565.97 -42.1768 434.372 44.8904 407.645 136.528C387.932 204.119 428.132 290.442 378.652 340.534C329.129 390.667 244.671 362.767 174.824 372.223C111.96 380.733 53.0056 403.031 -9.65559 393.103C-89.9165 380.388 -182.212 372.3 -231.666 307.824C-282.311 241.794 -259.515 149.236 -260.513 66.0428C-261.667 -30.2355 -297.975 -139.566 -237.932 -214.831C-177.614 -290.44 -63.5617 -316.219 31.9048 -300.506C117.48 -286.421 145.791 -168.433 227.113 -138.29Z" fill="#F63B00"/>
</g>
<g filter="url(#filter2_i_1_2)">
<path fill-rule="evenodd" clip-rule="evenodd" d="M1556.31 960.895C1536.4 864.903 1377.23 798.58 1418.1 709.48C1457.91 622.695 1601.55 688.013 1693.4 662.025C1761.15 642.858 1812.97 562.969 1881.69 578.317C1950.46 593.679 1971.64 680.067 2016.73 734.244C2057.31 783.005 2107.5 821.135 2132.34 879.51C2164.17 954.282 2206.3 1036.8 2177.91 1112.93C2148.82 1190.9 2058.28 1220.71 1988.3 1265.71C1907.32 1317.79 1833.93 1406.59 1738.27 1395.65C1642.18 1384.66 1559.79 1301.69 1522.44 1212.44C1488.96 1132.43 1573.93 1045.82 1556.31 960.895Z" fill="#F63B00"/>
</g>
<g filter="url(#filter3_i_1_2)">
<path fill-rule="evenodd" clip-rule="evenodd" d="M1589.27 969.791C1572.49 877.042 1421.15 809.388 1462.61 724.756C1503.01 642.323 1639.46 708.629 1728.37 685.907C1793.96 669.148 1845.73 593.638 1911.4 610.077C1977.12 626.53 1995.36 710.08 2037.36 763.258C2075.16 811.12 2122.47 849 2144.91 905.715C2173.66 978.361 2212.13 1058.7 2182.97 1131.18C2153.11 1205.4 2065.35 1231.83 1996.99 1273.36C1917.87 1321.43 1845.16 1404.98 1753.49 1392.11C1661.4 1379.19 1584.26 1297.42 1550.54 1210.72C1520.33 1133.01 1604.12 1051.84 1589.27 969.791Z" fill="#902200"/>
</g>
<g filter="url(#filter4_i_1_2)">
<path fill-rule="evenodd" clip-rule="evenodd" d="M1633.86 993.362C1617.46 902.042 1471.29 835.116 1511.11 751.917C1549.89 670.88 1681.68 736.446 1767.41 714.286C1830.64 697.941 1880.42 623.744 1943.81 640.072C2007.25 656.414 2025.03 738.683 2065.68 791.115C2102.26 838.305 2147.97 875.693 2169.76 931.562C2197.66 1003.12 2234.96 1082.28 2206.99 1153.54C2178.34 1226.53 2093.74 1252.33 2027.89 1293.06C1951.67 1340.18 1881.71 1422.24 1793.24 1409.37C1704.37 1396.45 1629.76 1315.79 1597.04 1230.39C1567.71 1153.84 1648.37 1074.15 1633.86 993.362Z" fill="#4D1200"/>
</g>
<g filter="url(#filter5_i_1_2)">
<path fill-rule="evenodd" clip-rule="evenodd" d="M203.113 -181.29C295.037 -147.217 435.727 -246.907 489.547 -164.978C541.97 -85.1768 410.372 1.89041 383.645 93.5281C363.932 161.119 404.132 247.442 354.652 297.534C305.129 347.667 220.671 319.767 150.824 329.223C87.9597 337.733 29.0056 360.031 -33.6556 350.103C-113.917 337.388 -206.212 329.3 -255.666 264.824C-306.311 198.794 -283.515 106.236 -284.513 23.0428C-285.667 -73.2355 -321.975 -182.566 -261.932 -257.831C-201.614 -333.44 -87.5617 -359.219 7.90485 -343.506C93.4798 -329.421 121.791 -211.433 203.113 -181.29Z" fill="#902200"/>
</g>
<g filter="url(#filter6_i_1_2)">
<path fill-rule="evenodd" clip-rule="evenodd" d="M175.113 -229.29C267.037 -195.217 407.727 -294.907 461.547 -212.978C513.97 -133.177 382.372 -46.1096 355.645 45.5281C335.932 113.119 376.132 199.442 326.652 249.534C277.129 299.667 192.671 271.767 122.824 281.223C59.9597 289.733 1.00559 312.031 -61.6556 302.103C-141.917 289.388 -234.212 281.3 -283.666 216.824C-334.311 150.794 -311.515 58.2357 -312.513 -24.9572C-313.667 -121.235 -349.975 -230.566 -289.932 -305.831C-229.614 -381.44 -115.562 -407.219 -20.0952 -391.506C65.4798 -377.421 93.7911 -259.433 175.113 -229.29Z" fill="#4D1200"/>
</g>
</g>
<defs>
<filter id="filter0_d_1_2" x="0" y="0" width="1928" height="889" filterUnits="userSpaceOnUse" color-interpolation-filters="sRGB">
<feFlood flood-opacity="0" result="BackgroundImageFix"/>
<feColorMatrix in="SourceAlpha" type="matrix" values="0 0 0 0 0 0 0 0 0 0 0 0 0 0 0 0 0 0 127 0" result="hardAlpha"/>
<feOffset dy="4"/>
<feGaussianBlur stdDeviation="2"/>
<feComposite in2="hardAlpha" operator="out"/>
<feColorMatrix type="matrix" values="0 0 0 0 0 0 0 0 0 0 0 0 0 0 0 0 0 0 0.25 0"/>
<feBlend mode="normal" in2="BackgroundImageFix" result="effect1_dropShadow_1_2"/>
<feBlend mode="normal" in="SourceGraphic" in2="effect1_dropShadow_1_2" result="shape"/>
</filter>
<filter id="filter1_i_1_2" x="-276.44" y="-308.914" width="802.206" height="704.515" filterUnits="userSpaceOnUse" color-interpolation-filters="sRGB">
<feFlood flood-opacity="0" result="BackgroundImageFix"/>
<feBlend mode="normal" in="SourceGraphic" in2="BackgroundImageFix" result="shape"/>
<feColorMatrix in="SourceAlpha" type="matrix" values="0 0 0 0 0 0 0 0 0 0 0 0 0 0 0 0 0 0 127 0" result="hardAlpha"/>
<feOffset dx="-14" dy="-39"/>
<feGaussianBlur stdDeviation="2"/>
<feComposite in2="hardAlpha" operator="arithmetic" k2="-1" k3="1"/>
<feColorMatrix type="matrix" values="0 0 0 0 0 0 0 0 0 0 0 0 0 0 0 0 0 0 0.25 0"/>
<feBlend mode="normal" in2="shape" result="effect1_innerShadow_1_2"/>
</filter>
<filter id="filter2_i_1_2" x="1411.42" y="576.371" width="779.869" height="820.206" filterUnits="userSpaceOnUse" color-interpolation-filters="sRGB">
<feFlood flood-opacity="0" result="BackgroundImageFix"/>
<feBlend mode="normal" in="SourceGraphic" in2="BackgroundImageFix" result="shape"/>
<feColorMatrix in="SourceAlpha" type="matrix" values="0 0 0 0 0 0 0 0 0 0 0 0 0 0 0 0 0 0 127 0" result="hardAlpha"/>
<feOffset dx="22"/>
<feGaussianBlur stdDeviation="2"/>
<feComposite in2="hardAlpha" operator="arithmetic" k2="-1" k3="1"/>
<feColorMatrix type="matrix" values="0 0 0 0 0 0 0 0 0 0 0 0 0 0 0 0 0 0 0.25 0"/>
<feBlend mode="normal" in2="shape" result="effect1_innerShadow_1_2"/>
</filter>
<filter id="filter3_i_1_2" x="1455.45" y="607.751" width="741.919" height="785.692" filterUnits="userSpaceOnUse" color-interpolation-filters="sRGB">
<feFlood flood-opacity="0" result="BackgroundImageFix"/>
<feBlend mode="normal" in="SourceGraphic" in2="BackgroundImageFix" result="shape"/>
<feColorMatrix in="SourceAlpha" type="matrix" values="0 0 0 0 0 0 0 0 0 0 0 0 0 0 0 0 0 0 127 0" result="hardAlpha"/>
<feOffset dx="22"/>
<feGaussianBlur stdDeviation="2"/>
<feComposite in2="hardAlpha" operator="arithmetic" k2="-1" k3="1"/>
<feColorMatrix type="matrix" values="0 0 0 0 0 0 0 0 0 0 0 0 0 0 0 0 0 0 0.25 0"/>
<feBlend mode="normal" in2="shape" result="effect1_innerShadow_1_2"/>
</filter>
<filter id="filter4_i_1_2" x="1504.26" y="637.74" width="716.63" height="772.986" filterUnits="userSpaceOnUse" color-interpolation-filters="sRGB">
<feFlood flood-opacity="0" result="BackgroundImageFix"/>
<feBlend mode="normal" in="SourceGraphic" in2="BackgroundImageFix" result="shape"/>
<feColorMatrix in="SourceAlpha" type="matrix" values="0 0 0 0 0 0 0 0 0 0 0 0 0 0 0 0 0 0 127 0" result="hardAlpha"/>
<feOffset dx="22"/>
<feGaussianBlur stdDeviation="2"/>
<feComposite in2="hardAlpha" operator="arithmetic" k2="-1" k3="1"/>
<feColorMatrix type="matrix" values="0 0 0 0 0 0 0 0 0 0 0 0 0 0 0 0 0 0 0.25 0"/>
<feBlend mode="normal" in2="shape" result="effect1_innerShadow_1_2"/>
</filter>
<filter id="filter5_i_1_2" x="-300.44" y="-351.914" width="802.206" height="704.515" filterUnits="userSpaceOnUse" color-interpolation-filters="sRGB">
<feFlood flood-opacity="0" result="BackgroundImageFix"/>
<feBlend mode="normal" in="SourceGraphic" in2="BackgroundImageFix" result="shape"/>
<feColorMatrix in="SourceAlpha" type="matrix" values="0 0 0 0 0 0 0 0 0 0 0 0 0 0 0 0 0 0 127 0" result="hardAlpha"/>
<feOffset dx="-14" dy="-39"/>
<feGaussianBlur stdDeviation="2"/>
<feComposite in2="hardAlpha" operator="arithmetic" k2="-1" k3="1"/>
<feColorMatrix type="matrix" values="0 0 0 0 0 0 0 0 0 0 0 0 0 0 0 0 0 0 0.25 0"/>
<feBlend mode="normal" in2="shape" result="effect1_innerShadow_1_2"/>
</filter>
<filter id="filter6_i_1_2" x="-328.44" y="-399.914" width="802.206" height="704.515" filterUnits="userSpaceOnUse" color-interpolation-filters="sRGB">
<feFlood flood-opacity="0" result="BackgroundImageFix"/>
<feBlend mode="normal" in="SourceGraphic" in2="BackgroundImageFix" result="shape"/>
<feColorMatrix in="SourceAlpha" type="matrix" values="0 0 0 0 0 0 0 0 0 0 0 0 0 0 0 0 0 0 127 0" result="hardAlpha"/>
<feOffset dx="-14" dy="-39"/>
<feGaussianBlur stdDeviation="2"/>
<feComposite in2="hardAlpha" operator="arithmetic" k2="-1" k3="1"/>
<feColorMatrix type="matrix" values="0 0 0 0 0 0 0 0 0 0 0 0 0 0 0 0 0 0 0.25 0"/>
<feBlend mode="normal" in2="shape" result="effect1_innerShadow_1_2"/>
</filter>
<clipPath id="clip0_1_2">
<rect width="1920" height="881" fill="white" transform="translate(4)"/>
</clipPath>
</defs>
</svg>
